<?xml version="1.0" standalone="no"?><!DOCTYPE svg PUBLIC "-//W3C//DTD SVG 1.1//EN" "http://www.w3.org/Graphics/SVG/1.1/DTD/svg11.dtd"><svg t="1591941452298" class="icon" viewBox="0 0 1024 1024" version="1.1" xmlns="http://www.w3.org/2000/svg" p-id="1641" xmlns:xlink="http://www.w3.org/1999/xlink" width="200" height="200"><defs><style type="text/css"></style></defs><path d="M182.460177 212.779221l278.940259 57.84935L371.634203 0 182.460177 212.779221zM659.883553 465.454545l-147.948052-84.446753L365.317319 465.454545l-10.638961 5.984416v181.194805l144.955845 83.116883 11.968831 7.646754 13.631169-7.646754L668.527709 653.298701V472.103896z m-147.948052-54.524675l120.685715 69.485714-120.685715 71.48052-120.685714-71.148052z m-129.994805 226.742857v-132.987013l117.693507 66.493507v132.987013z m261.319481 0l-117.693507 66.493507v-132.987013l117.693507-66.493507z m0 0" fill="" p-id="1642"></path><path d="M511.270566 764.675325l-20.280519-12.633767-152.935065-87.438961v-199.480519l173.548052-99.74026 173.880519 99.74026v199.480519z m30.587013-178.867533v93.090909l84.446753-48.872727v-93.090909z m-143.625974 44.218182l84.446753 48.872727v-93.090909l-84.446753-48.872727z m25.6-147.283117L511.935501 531.948052l87.771429-51.532468L511.935501 432.207792z" fill="" p-id="1643"></path><path d="M511.935501 74.14026a473.101299 473.101299 0 0 0-134.64935 19.615584V199.480519a376.685714 376.685714 0 1 1-219.761039 227.74026H53.462774A474.763636 474.763636 0 1 0 511.935501 74.14026z" fill="" p-id="1644"></path></svg>